<svg width="40" height="32" viewBox="0 0 40 32" fill="none" xmlns="http://www.w3.org/2000/svg">
<path d="M20.8119 5.39408C20.8119 6.77094 20.3211 7.96153 19.3394 8.96583C18.3577 9.95394 16.926 10.6667 15.0445 11.104C16.0589 11.3794 16.8279 11.833 17.3514 12.4647C17.875 13.0802 18.1368 13.793 18.1368 14.6029C18.1368 15.8826 17.7278 16.9922 16.9097 17.9317C16.108 18.8712 14.9299 19.6001 13.3756 20.1185C11.8212 20.6206 9.94783 20.8717 7.75538 20.8717C6.9373 20.8717 6.28284 20.8474 5.79199 20.7988C5.77563 21.2523 5.57929 21.5925 5.20298 21.8193C4.82666 22.0461 4.344 22.1595 3.75498 22.1595C3.16596 22.1595 2.75692 22.0299 2.52786 21.7707C2.31516 21.5115 2.22517 21.1309 2.2579 20.6287C2.40515 18.3609 2.69148 15.9879 3.11688 13.5095C3.54228 11.0149 4.08221 8.60947 4.73667 6.29309C4.8512 5.88813 5.08027 5.60466 5.42386 5.44267C5.76745 5.28069 6.21739 5.1997 6.77369 5.1997C7.77174 5.1997 8.27077 5.47507 8.27077 6.02582C8.27077 6.25259 8.22169 6.51177 8.12352 6.80334C7.69812 8.06682 7.27272 9.78385 6.84732 11.9544C6.42191 14.1088 6.11923 16.166 5.93925 18.126C6.7246 18.1908 7.3627 18.2232 7.85355 18.2232C10.1442 18.2232 11.8212 17.8993 12.8847 17.2513C13.9646 16.5872 14.5045 15.7449 14.5045 14.7244C14.5045 14.0116 14.1937 13.4123 13.5719 12.9263C12.9665 12.4404 11.9439 12.1731 10.5041 12.1245C10.1769 12.1083 9.94783 12.0273 9.81694 11.8815C9.68605 11.7358 9.6206 11.5009 9.6206 11.1769C9.6206 10.7072 9.71877 10.3265 9.91511 10.0349C10.1114 9.74336 10.4714 9.58947 10.995 9.57327C12.1566 9.54088 13.2038 9.37079 14.1364 9.06302C15.0854 8.75525 15.8298 8.32599 16.3697 7.77525C16.9097 7.2083 17.1796 6.55227 17.1796 5.80714C17.1796 4.86763 16.7133 4.1306 15.7807 3.59605C14.8481 3.04531 13.4165 2.76993 11.4858 2.76993C9.73513 2.76993 8.04171 2.99671 6.40555 3.45027C4.7694 3.88762 3.37866 4.44647 2.23335 5.1268C1.70978 5.43457 1.26802 5.58846 0.908067 5.58846C0.613559 5.58846 0.384497 5.49127 0.220881 5.29689C0.073627 5.08631 0 4.82713 0 4.51936C0 4.1144 0.0818078 3.76614 0.245423 3.47456C0.425401 3.18299 0.84262 2.85092 1.49708 2.47836C2.87145 1.70084 4.48307 1.09339 6.33193 0.656037C8.18078 0.218679 10.0705 0 12.0012 0C14.9627 0 17.1715 0.494052 18.6276 1.48216C20.0838 2.47026 20.8119 3.77424 20.8119 5.39408Z" fill="#FC4E23"/>
<path d="M22.5326 21.0661C21.5181 21.0661 20.7082 20.7016 20.1029 19.9727C19.4975 19.2437 19.1948 18.288 19.1948 17.1055C19.1948 15.8097 19.4975 14.5867 20.1029 13.4366C20.7082 12.2703 21.51 11.3389 22.508 10.6424C23.5224 9.92964 24.5941 9.57327 25.7231 9.57327C26.083 9.57327 26.3203 9.64617 26.4348 9.79195C26.5657 9.92154 26.672 10.1645 26.7538 10.5209C27.0974 10.4561 27.4574 10.4237 27.8337 10.4237C28.6354 10.4237 29.0363 10.7072 29.0363 11.2741C29.0363 11.6143 28.9136 12.4242 28.6681 13.7039C28.2918 15.5667 28.1037 16.8626 28.1037 17.5915C28.1037 17.8345 28.1609 18.0289 28.2755 18.1746C28.4064 18.3204 28.57 18.3933 28.7663 18.3933C29.0772 18.3933 29.4535 18.1989 29.8953 17.8102C30.337 17.4052 30.9342 16.7573 31.6869 15.8664C31.8832 15.6396 32.1041 15.5262 32.3495 15.5262C32.5622 15.5262 32.7258 15.6234 32.8403 15.8178C32.9712 16.0121 33.0367 16.2794 33.0367 16.6196C33.0367 17.2675 32.8812 17.7697 32.5704 18.126C31.8996 18.9522 31.1878 19.6487 30.4352 20.2156C29.6826 20.7826 28.9545 21.0661 28.2509 21.0661C27.711 21.0661 27.212 20.8879 26.7538 20.5315C26.3121 20.1589 25.9767 19.6568 25.7476 19.0251C24.8968 20.3857 23.8251 21.0661 22.5326 21.0661ZM23.4161 18.612C23.776 18.612 24.1196 18.4014 24.4469 17.9803C24.7741 17.5591 25.0113 17.0003 25.1586 16.3037L26.0667 11.833C25.3795 11.8492 24.7414 12.1083 24.1524 12.6105C23.5797 13.0964 23.1216 13.7444 22.778 14.5543C22.4344 15.3642 22.2626 16.2227 22.2626 17.1298C22.2626 17.632 22.3608 18.0046 22.5571 18.2475C22.7698 18.4905 23.0561 18.612 23.4161 18.612Z" fill="#FC4E23"/>
<path d="M38.8711 10.4237C39.2801 10.4237 39.5664 10.4885 39.73 10.6181C39.91 10.7315 40 10.9663 40 11.3227C40 11.5171 39.9918 11.671 39.9755 11.7844C39.91 12.2865 39.7055 13.5824 39.3619 15.672C39.1165 17.0812 38.961 18.0127 38.8956 18.4662C38.2739 22.6454 37.4312 25.9418 36.3677 28.3554C35.3206 30.7851 33.9135 32 32.1464 32C31.312 32 30.633 31.7408 30.1094 31.2225C29.5859 30.7203 29.3241 30.0562 29.3241 29.2301C29.3241 28.08 29.7822 26.8408 30.6984 25.5125C31.6147 24.2005 33.3327 22.5806 35.8523 20.653L35.9996 19.7054C35.7215 20.1427 35.3533 20.4829 34.8952 20.7259C34.4534 20.9527 34.0117 21.0661 33.5699 21.0661C32.5555 21.0661 31.7456 20.7016 31.1402 19.9727C30.5348 19.2437 30.2321 18.288 30.2321 17.1055C30.2321 15.8097 30.5348 14.5867 31.1402 13.4366C31.7456 12.2703 32.5473 11.3389 33.5454 10.6424C34.5598 9.92964 35.6315 9.57327 36.7604 9.57327C37.1204 9.57327 37.3576 9.64617 37.4721 9.79195C37.603 9.92154 37.7094 10.1645 37.7912 10.5209C38.1021 10.4561 38.462 10.4237 38.8711 10.4237ZM34.4534 18.612C34.8297 18.612 35.1897 18.3852 35.5333 17.9317C35.8769 17.4781 36.1223 16.8302 36.2696 15.9879L37.0549 11.833C36.3841 11.8492 35.7624 12.1083 35.1897 12.6105C34.617 13.0964 34.1589 13.7444 33.8153 14.5543C33.4717 15.3642 33.2999 16.2227 33.2999 17.1298C33.2999 17.632 33.3981 18.0046 33.5944 18.2475C33.8071 18.4905 34.0935 18.612 34.4534 18.612ZM32.4164 29.6431C32.8255 29.6431 33.2836 29.1572 33.7908 28.1853C34.3144 27.2134 34.8134 25.6664 35.2879 23.5444C34.028 24.6135 33.12 25.5773 32.5637 26.4358C32.0074 27.2944 31.7292 28.0476 31.7292 28.6955C31.7292 28.9709 31.7783 29.1977 31.8765 29.3759C31.991 29.554 32.171 29.6431 32.4164 29.6431Z" fill="#FC4E23"/>
</svg>
