<svg width="50" height="40" viewBox="0 0 50 40" fill="none" xmlns="http://www.w3.org/2000/svg">
<path d="M26.0149 6.7426C26.0149 8.46368 25.4013 9.95191 24.1742 11.2073C22.9471 12.4424 21.1575 13.3333 18.8056 13.88C20.0736 14.2242 21.0348 14.7912 21.6893 15.5809C22.3438 16.3503 22.671 17.2412 22.671 18.2536C22.671 19.8532 22.1597 21.2402 21.1371 22.4146C20.135 23.589 18.6624 24.5001 16.7195 25.1481C14.7765 25.7758 12.4348 26.0896 9.69423 26.0896C8.67163 26.0896 7.85355 26.0592 7.23999 25.9985C7.21954 26.5654 6.97412 26.9906 6.50372 27.2741C6.03333 27.5576 5.42999 27.6993 4.69372 27.6993C3.95745 27.6993 3.44615 27.5373 3.15983 27.2134C2.89395 26.8894 2.78147 26.4136 2.82237 25.7859C3.00644 22.9512 3.36435 19.9848 3.8961 16.8869C4.42785 13.7687 5.10276 10.7618 5.92084 7.86636C6.06401 7.36016 6.35033 7.00582 6.77982 6.80334C7.20931 6.60086 7.77174 6.49962 8.46711 6.49962C9.71468 6.49962 10.3385 6.84384 10.3385 7.53227C10.3385 7.81574 10.2771 8.13971 10.1544 8.50418C9.62265 10.0835 9.09089 12.2298 8.55914 14.9431C8.02739 17.636 7.64903 20.2075 7.42406 22.6576C8.40575 22.7385 9.20338 22.779 9.81694 22.779C12.6802 22.779 14.7765 22.3741 16.1059 21.5642C17.4557 20.734 18.1307 19.6811 18.1307 18.4055C18.1307 17.5146 17.7421 16.7654 16.9649 16.1579C16.2082 15.5505 14.9299 15.2164 13.1302 15.1557C12.7211 15.1354 12.4348 15.0342 12.2712 14.8519C12.1076 14.6697 12.0258 14.3761 12.0258 13.9711C12.0258 13.384 12.1485 12.9081 12.3939 12.5437C12.6393 12.1792 13.0893 11.9868 13.7437 11.9666C15.1958 11.9261 16.5047 11.7135 17.6705 11.3288C18.8567 10.9441 19.7873 10.4075 20.4622 9.71906C21.1371 9.01038 21.4746 8.19033 21.4746 7.25892C21.4746 6.08454 20.8917 5.16325 19.7259 4.49506C18.5602 3.80663 16.7706 3.46242 14.3573 3.46242C12.1689 3.46242 10.0521 3.74589 8.00694 4.31283C5.96175 4.85953 4.22333 5.55809 2.79169 6.4085C2.13723 6.79322 1.58503 6.98557 1.13508 6.98557C0.766948 6.98557 0.480621 6.86409 0.276101 6.62111C0.0920338 6.35788 0 6.03392 0 5.6492C0 5.143 0.10226 4.70767 0.306779 4.3432C0.531751 3.97874 1.05328 3.56365 1.87135 3.09795C3.58932 2.12604 5.60384 1.36674 7.91491 0.820046C10.226 0.273349 12.5882 0 15.0015 0C18.7033 0 21.4643 0.617565 23.2846 1.8527C25.1048 3.08783 26.0149 4.71779 26.0149 6.7426Z" fill="black"/>
<path d="M28.1657 26.3326C26.8977 26.3326 25.8853 25.877 25.1286 24.9658C24.3719 24.0547 23.9935 22.86 23.9935 21.3819C23.9935 19.7621 24.3719 18.2334 25.1286 16.7957C25.8853 15.3379 26.8875 14.1736 28.135 13.303C29.403 12.412 30.7426 11.9666 32.1538 11.9666C32.6038 11.9666 32.9003 12.0577 33.0435 12.2399C33.2071 12.4019 33.34 12.7056 33.4423 13.1511C33.8718 13.0701 34.3217 13.0296 34.7921 13.0296C35.7943 13.0296 36.2954 13.384 36.2954 14.0926C36.2954 14.5178 36.142 15.5302 35.8352 17.1298C35.3648 19.4584 35.1296 21.0782 35.1296 21.9894C35.1296 22.2931 35.2012 22.5361 35.3443 22.7183C35.5079 22.9005 35.7125 22.9916 35.9579 22.9916C36.3465 22.9916 36.8169 22.7487 37.3691 22.2627C37.9213 21.7565 38.6678 20.9466 39.6086 19.833C39.854 19.5495 40.1301 19.4077 40.4369 19.4077C40.7027 19.4077 40.9073 19.5292 41.0504 19.7722C41.214 20.0152 41.2959 20.3493 41.2959 20.7745C41.2959 21.5844 41.1016 22.2121 40.713 22.6576C39.8744 23.6902 38.9848 24.5609 38.044 25.2696C37.1032 25.9782 36.1931 26.3326 35.3137 26.3326C34.6387 26.3326 34.015 26.1098 33.4423 25.6644C32.8901 25.1987 32.4708 24.571 32.1845 23.7813C31.121 25.4822 29.7814 26.3326 28.1657 26.3326ZM29.2701 23.265C29.72 23.265 30.1495 23.0018 30.5586 22.4753C30.9676 21.9489 31.2642 21.2503 31.4482 20.3797L32.5833 14.7912C31.7243 14.8114 30.9267 15.1354 30.1904 15.7631C29.4746 16.3705 28.902 17.1805 28.4725 18.1929C28.043 19.2053 27.8282 20.2784 27.8282 21.4123C27.8282 22.04 27.951 22.5057 28.1964 22.8094C28.4623 23.1131 28.8202 23.265 29.2701 23.265Z" fill="black"/>
<path d="M48.5888 13.0296C49.1001 13.0296 49.458 13.1106 49.6625 13.2726C49.8875 13.4143 50 13.7079 50 14.1534C50 14.3964 49.9898 14.5887 49.9693 14.7304C49.8875 15.3581 49.6319 16.978 49.2024 19.59C48.8956 21.3516 48.7013 22.5158 48.6195 23.0828C47.8423 28.3068 46.789 32.4272 45.4597 35.4442C44.1507 38.4814 42.3919 40 40.1831 40C39.14 40 38.2913 39.676 37.6368 39.0281C36.9823 38.4004 36.6551 37.5702 36.6551 36.5376C36.6551 35.1 37.2278 33.551 38.3731 31.8907C39.5184 30.2506 41.6658 28.2258 44.8154 25.8163L44.9995 24.6317C44.6518 25.1784 44.1916 25.6036 43.619 25.9074C43.0668 26.1908 42.5146 26.3326 41.9624 26.3326C40.6944 26.3326 39.682 25.877 38.9253 24.9658C38.1685 24.0547 37.7902 22.86 37.7902 21.3819C37.7902 19.7621 38.1685 18.2334 38.9253 16.7957C39.682 15.3379 40.6841 14.1736 41.9317 13.303C43.1997 12.412 44.5393 11.9666 45.9505 11.9666C46.4005 11.9666 46.697 12.0577 46.8402 12.2399C47.0038 12.4019 47.1367 12.7056 47.239 13.1511C47.6276 13.0701 48.0775 13.0296 48.5888 13.0296ZM43.0668 23.265C43.5372 23.265 43.9871 22.9815 44.4166 22.4146C44.8461 21.8476 45.1529 21.0377 45.337 19.9848L46.3186 14.7912C45.4801 14.8114 44.7029 15.1354 43.9871 15.7631C43.2713 16.3705 42.6987 17.1805 42.2692 18.1929C41.8397 19.2053 41.6249 20.2784 41.6249 21.4123C41.6249 22.04 41.7476 22.5057 41.9931 22.8094C42.2589 23.1131 42.6168 23.265 43.0668 23.265ZM40.5205 37.0539C41.0318 37.0539 41.6045 36.4465 42.2385 35.2316C42.8929 34.0167 43.5167 32.083 44.1098 29.4305C42.535 30.7669 41.4 31.9717 40.7046 33.0448C40.0092 34.1179 39.6615 35.0595 39.6615 35.8694C39.6615 36.2136 39.7229 36.4971 39.8456 36.7198C39.9888 36.9426 40.2137 37.0539 40.5205 37.0539Z" fill="black"/>
</svg>
