<svg width="36" height="32" viewBox="0 0 36 32" fill="none" xmlns="http://www.w3.org/2000/svg">
<path d="M9.9292 17.474V4.70983C9.9292 3.31388 11.2146 2.2722 12.5802 2.5614L32.2589 6.72864C33.2739 6.94358 34 7.83955 34 8.87707V21.4097C34 22.7955 32.7321 23.8349 31.3732 23.5631L11.6946 19.6274C10.6681 19.4221 9.9292 18.5208 9.9292 17.474Z" fill="#F7BD07"/>
<path d="M6.2478 20.589V7.82487C6.2478 6.42892 7.53318 5.38724 8.89885 5.67644L28.5775 9.84368C29.5925 10.0586 30.3186 10.9546 30.3186 11.9921V24.5247C30.3186 25.9106 29.0507 26.95 27.6918 26.6782L8.0132 22.7424C6.98669 22.5371 6.2478 21.6358 6.2478 20.589Z" fill="#DA6ED4"/>
<path d="M6.2478 20.589V7.82487C6.2478 6.42892 7.53318 5.38724 8.89885 5.67644L28.5775 9.84368C29.5925 10.0586 30.3186 10.9546 30.3186 11.9921V24.5247C30.3186 25.9106 29.0507 26.95 27.6918 26.6782L8.0132 22.7424C6.98669 22.5371 6.2478 21.6358 6.2478 20.589Z" fill="#D22C00"/>
<path d="M2 24.2704V11.5063C2 10.1103 3.28538 9.06864 4.65105 9.35784L24.3297 13.5251C25.3447 13.74 26.0708 14.636 26.0708 15.6735V28.2061C26.0708 29.592 24.8029 30.6314 23.444 30.3596L3.76539 26.4239C2.73889 26.2186 2 25.3172 2 24.2704Z" fill="#43A2ED"/>
<path d="M2 24.2704V11.5063C2 10.1103 3.28538 9.06864 4.65105 9.35784L24.3297 13.5251C25.3447 13.74 26.0708 14.636 26.0708 15.6735V28.2061C26.0708 29.592 24.8029 30.6314 23.444 30.3596L3.76539 26.4239C2.73889 26.2186 2 25.3172 2 24.2704Z" fill="#002ED2"/>
</svg>
